<?xml version="1.0" encoding="utf-8"?>
<!-- Generator: Adobe Illustrator 18.1.1, SVG Export Plug-In . SVG Version: 6.00 Build 0)  -->
<svg version="1.1" id="Layer_1" xmlns="http://www.w3.org/2000/svg" xmlns:xlink="http://www.w3.org/1999/xlink" x="0px" y="0px"
	 viewBox="0 0 45 45" enable-background="new 0 0 45 45" xml:space="preserve">
<g>
	<path fill="#FFFFFF" d="M22.5,2C11.2,2,2,11.2,2,22.5S11.2,43,22.5,43S43,33.8,43,22.5S33.8,2,22.5,2z M22.5,42
		C11.7,42,3,33.3,3,22.5C3,11.7,11.7,3,22.5,3S42,11.7,42,22.5C42,33.3,33.3,42,22.5,42z"/>
	<polygon fill="#FFFFFF" points="28,22 12,22 12,23 28,23 28,29.6 35,22.5 28,15.4 	"/>
</g>
</svg>
