<?xml version="1.0" encoding="utf-8"?>
<!-- Generator: Adobe Illustrator 18.1.1, SVG Export Plug-In . SVG Version: 6.00 Build 0)  -->
<svg version="1.1" id="Layer_1" xmlns="http://www.w3.org/2000/svg" xmlns:xlink="http://www.w3.org/1999/xlink" x="0px" y="0px"
	 viewBox="0 0 174 204" enable-background="new 0 0 174 204" xml:space="preserve">
<polygon fill="#B1ECEC" points="16.1,8.9 18.4,13.5 23.4,14.2 19.8,17.8 20.6,22.9 16.1,20.5 11.5,22.9 12.4,17.8 8.7,14.2 
	13.8,13.5 "/>
<polygon fill="#B1ECEC" points="116.1,34.4 118.2,38.7 122.9,39.4 119.5,42.7 120.3,47.4 116.1,45.2 111.9,47.4 112.7,42.7 
	109.3,39.4 114,38.7 "/>
<polygon fill="#B1ECEC" points="141.1,110.4 143.2,114.7 147.9,115.4 144.5,118.7 145.3,123.4 141.1,121.2 136.9,123.4 137.7,118.7 
	134.3,115.4 139,114.7 "/>
<polygon fill="#B1ECEC" points="84.6,61.9 86.2,65.2 89.8,65.7 87.2,68.3 87.8,71.9 84.6,70.2 81.3,71.9 82,68.3 79.3,65.7 83,65.2 
	"/>
<polygon fill="#B1ECEC" points="38.1,156.5 39.4,159.1 42.3,159.6 40.2,161.6 40.7,164.6 38.1,163.2 35.4,164.6 35.9,161.6 
	33.8,159.6 36.8,159.1 "/>
<polygon fill="#B1ECEC" points="118.5,183.2 119.9,186.1 123,186.5 120.8,188.7 121.3,191.8 118.5,190.3 115.7,191.8 116.2,188.7 
	114,186.5 117.1,186.1 "/>
</svg>
